<?xml version="1.0" standalone="no"?>
<!DOCTYPE svg PUBLIC "-//W3C//DTD SVG 20010904//EN"
 "http://www.w3.org/TR/2001/REC-SVG-20010904/DTD/svg10.dtd">
<svg version="1.0" xmlns="http://www.w3.org/2000/svg"
 width="50.000000pt" height="50.000000pt" viewBox="0 0 50.000000 50.000000"
 preserveAspectRatio="xMidYMid meet">

<g transform="translate(0.000000,50.000000) scale(0.100000,-0.100000)"
fill="#000000" stroke="none">
<path d="M301 466 c-43 -24 -71 -106 -36 -106 50 0 92 49 83 96 -4 23 -18 26
-47 10z m29 -31 c0 -17 -35 -55 -50 -55 -15 0 -12 22 6 48 17 25 44 29 44 7z"/>
<path d="M201 329 c-11 -12 -22 -33 -26 -47 -3 -15 -22 -51 -42 -80 -30 -44
-35 -58 -30 -90 11 -69 87 -103 192 -87 58 8 94 39 102 88 5 32 1 45 -24 80
-17 23 -40 64 -52 92 -12 27 -27 53 -34 57 -23 15 -66 8 -86 -13z m75 -7 c6
-4 23 -32 38 -62 15 -30 36 -72 49 -92 17 -29 19 -42 12 -65 -29 -83 -221 -83
-250 0 -7 23 -5 36 12 65 13 20 34 62 49 92 29 58 39 70 64 70 8 0 20 -4 26
-8z"/>
</g>
</svg>
